<?xml version="1.0" encoding="UTF-8"?>
<!DOCTYPE svg PUBLIC "-//W3C//DTD SVG 1.1//EN" "http://www.w3.org/Graphics/SVG/1.1/DTD/svg11.dtd">
<!-- Creator: CorelDRAW -->
<svg xmlns="http://www.w3.org/2000/svg" xml:space="preserve" width="5.08mm" height="5.08mm" version="1.1" style="shape-rendering:geometricPrecision; text-rendering:geometricPrecision; image-rendering:optimizeQuality; fill-rule:evenodd; clip-rule:evenodd"
viewBox="0 0 8.55 8.55"
 xmlns:xlink="http://www.w3.org/1999/xlink"
 xmlns:xodm="http://www.corel.com/coreldraw/odm/2003">
 <defs>
  <style type="text/css">
   <![CDATA[
    .fil0 {fill:black;fill-rule:nonzero}
   ]]>
  </style>
 </defs>
 <g id="SECTIONCUTEDGES">
  <metadata id="CorelCorpID_0Corel-Layer"/>
  <path class="fil0" d="M0 1.72c-0,0.11 0.06,0.22 0.16,0.27 0.1,0.06 0.22,0.06 0.31,0 0.1,-0.06 0.16,-0.16 0.15,-0.27l0 -0.65 1.22 1.22c0.08,0.08 0.19,0.11 0.3,0.09 0.11,-0.03 0.19,-0.11 0.22,-0.22 0.03,-0.11 -0,-0.23 -0.09,-0.3l-1.22 -1.22 0.65 0c0.11,0 0.22,-0.06 0.27,-0.16 0.06,-0.1 0.06,-0.22 0,-0.31 -0.06,-0.1 -0.16,-0.16 -0.27,-0.16l-1.72 0 -0 1.72zm6.83 6.83c-0.11,0 -0.22,-0.06 -0.27,-0.16 -0.06,-0.1 -0.06,-0.22 0,-0.31 0.06,-0.1 0.16,-0.16 0.27,-0.15l0.65 0 -1.22 -1.22c-0.08,-0.08 -0.11,-0.19 -0.09,-0.3 0.03,-0.11 0.11,-0.19 0.22,-0.22 0.11,-0.03 0.23,0 0.3,0.09l1.22 1.22 0 -0.65c-0,-0.11 0.06,-0.22 0.16,-0.27 0.1,-0.06 0.22,-0.06 0.31,0 0.1,0.06 0.16,0.16 0.16,0.27l0 1.72 -1.72 0zm-5.12 0c0.11,0 0.22,-0.06 0.27,-0.16 0.06,-0.1 0.06,-0.22 0,-0.31 -0.06,-0.1 -0.16,-0.16 -0.27,-0.15l-0.65 0 1.22 -1.22c0.08,-0.08 0.11,-0.19 0.09,-0.3 -0.03,-0.11 -0.11,-0.19 -0.22,-0.22 -0.11,-0.03 -0.23,0 -0.3,0.09l-1.22 1.22 0 -0.65c0,-0.11 -0.06,-0.22 -0.16,-0.27 -0.1,-0.06 -0.22,-0.06 -0.31,0 -0.1,0.06 -0.16,0.16 -0.16,0.27l0 1.72 1.72 0zm6.83 -6.83c0,0.11 -0.06,0.22 -0.16,0.27 -0.1,0.06 -0.22,0.06 -0.31,0 -0.1,-0.06 -0.16,-0.16 -0.15,-0.27l0 -0.65 -1.22 1.22c-0.08,0.08 -0.19,0.11 -0.3,0.09 -0.11,-0.03 -0.19,-0.11 -0.22,-0.22 -0.03,-0.11 0,-0.23 0.09,-0.3l1.22 -1.22 -0.65 0c-0.11,0 -0.22,-0.06 -0.27,-0.16 -0.06,-0.1 -0.06,-0.22 0,-0.31 0.06,-0.1 0.16,-0.16 0.27,-0.16l1.72 0 0 1.72z"/>
 </g>
</svg>
