<?xml version="1.0" encoding="UTF-8"?>
<!DOCTYPE svg PUBLIC "-//W3C//DTD SVG 1.1//EN" "http://www.w3.org/Graphics/SVG/1.1/DTD/svg11.dtd">
<!-- Creator: CorelDRAW -->
<svg xmlns="http://www.w3.org/2000/svg" xml:space="preserve" width="5.08mm" height="5.0342mm" version="1.1" style="shape-rendering:geometricPrecision; text-rendering:geometricPrecision; image-rendering:optimizeQuality; fill-rule:evenodd; clip-rule:evenodd"
viewBox="0 0 8.85 8.77"
 xmlns:xlink="http://www.w3.org/1999/xlink"
 xmlns:xodm="http://www.corel.com/coreldraw/odm/2003">
 <defs>
  <style type="text/css">
   <![CDATA[
    .fil0 {fill:black;fill-rule:nonzero}
   ]]>
  </style>
 </defs>
 <g id="SECTIONCUTEDGES">
  <metadata id="CorelCorpID_0Corel-Layer"/>
  <path class="fil0" d="M8.12 5.75c-0.18,0 -0.33,0.15 -0.33,0.34 0,0.02 0,0.05 0.01,0.07l0.22 1.09 -1.71 -1.18c-0.06,-0.04 -0.13,-0.06 -0.2,-0.06 -0.19,0 -0.34,0.15 -0.34,0.34 0,0.11 0.06,0.22 0.15,0.28l1.79 1.24 -1.22 0.24c-0.16,0.03 -0.28,0.17 -0.28,0.33 0,0.19 0.15,0.34 0.34,0.34 0.02,0 0.05,-0 0.07,-0.01l1.95 -0.39c0.16,-0.03 0.27,-0.17 0.27,-0.33 0,-0.02 -0,-0.04 -0.01,-0.07l-0.39 -1.95c-0.03,-0.16 -0.17,-0.28 -0.33,-0.28 -0,0 -0,0 -0,0l0 0zm-7.39 -0.01c-0.16,0 -0.3,0.12 -0.33,0.28l-0.39 1.95c-0,0.02 -0.01,0.04 -0.01,0.07 0,0.16 0.11,0.3 0.27,0.33l1.95 0.39c0.02,0 0.04,0.01 0.07,0.01 0.19,0 0.34,-0.15 0.34,-0.34 0,-0.16 -0.11,-0.3 -0.27,-0.33l-1.21 -0.24 1.78 -1.23c0.09,-0.06 0.15,-0.17 0.15,-0.28 0,-0.19 -0.15,-0.34 -0.34,-0.34 -0.07,0 -0.14,0.02 -0.2,0.06l-1.71 1.18 0.22 -1.1c0,-0.02 0.01,-0.05 0.01,-0.07 0,-0.19 -0.15,-0.34 -0.34,-0.34 -0,0 -0,0 -0.01,0l0 0zm3.7 -1.3c-0.41,0 -0.73,0.33 -0.73,0.73 0,0.4 0.33,0.73 0.73,0.73 0.4,0 0.73,-0.33 0.73,-0.73 0,-0.4 -0.33,-0.73 -0.73,-0.73zm-0.01 -4.44c-0.1,0 -0.2,0.05 -0.26,0.13l-1.43 1.43c-0.07,0.06 -0.1,0.15 -0.1,0.24 0,0.19 0.15,0.34 0.34,0.34 0.09,0 0.18,-0.04 0.24,-0.1l0.89 -0.88 0 2.11c0,0 0,0 0,0 0,0.19 0.15,0.34 0.34,0.34 0.19,0 0.34,-0.15 0.34,-0.34 0,-0 0,-0 0,-0l0 -2.11 0.88 0.88c0.06,0.07 0.15,0.1 0.24,0.1 0.19,0 0.34,-0.15 0.34,-0.34 0,-0.09 -0.04,-0.18 -0.1,-0.24l-1.43 -1.43c-0.06,-0.08 -0.16,-0.13 -0.27,-0.13 -0,0 -0,0 -0,0l-0 0z"/>
 </g>
</svg>
