<?xml version="1.0" encoding="UTF-8"?>
<!DOCTYPE svg PUBLIC "-//W3C//DTD SVG 1.1//EN" "http://www.w3.org/Graphics/SVG/1.1/DTD/svg11.dtd">
<!-- Creator: CorelDRAW -->
<svg xmlns="http://www.w3.org/2000/svg" xml:space="preserve" width="5.08mm" height="5.08mm" version="1.1" style="shape-rendering:geometricPrecision; text-rendering:geometricPrecision; image-rendering:optimizeQuality; fill-rule:evenodd; clip-rule:evenodd"
viewBox="0 0 7.49 7.49"
 xmlns:xlink="http://www.w3.org/1999/xlink"
 xmlns:xodm="http://www.corel.com/coreldraw/odm/2003">
 <defs>
  <style type="text/css">
   <![CDATA[
    .fil0 {fill:black}
   ]]>
  </style>
 </defs>
 <g id="SECTIONCUTEDGES">
  <metadata id="CorelCorpID_0Corel-Layer"/>
  <path class="fil0" d="M1.25 1.04c2.87,0 5.2,2.33 5.2,5.2l0 0.21 -0.83 0 0 -0.21c0,-2.41 -1.96,-4.37 -4.37,-4.37l-0.21 0 0 -0.83 0.21 0zm-0.21 6.45l5.41 0c0.58,0 1.04,-0.46 1.04,-1.04l0 -5.41c0,-0.58 -0.46,-1.04 -1.04,-1.04l-5.41 0c-0.58,0 -1.04,0.46 -1.04,1.04l0 5.41c0,0.58 0.46,1.04 1.04,1.04zm0.21 -4.37c1.79,0 3.12,1.33 3.12,3.12l0 0.21 -0.83 0 0 -0.21c0,-1.31 -0.98,-2.29 -2.29,-2.29l-0.21 0 0 -0.83 0.21 0zm0.52 1.87c0.4,0 0.73,0.33 0.73,0.73 0,0.4 -0.33,0.73 -0.73,0.73 -0.4,0 -0.73,-0.33 -0.73,-0.73 0,-0.4 0.33,-0.73 0.73,-0.73z"/>
 </g>
</svg>
