<?xml version="1.0" encoding="UTF-8"?>
<!DOCTYPE svg PUBLIC "-//W3C//DTD SVG 1.1//EN" "http://www.w3.org/Graphics/SVG/1.1/DTD/svg11.dtd">
<!-- Creator: CorelDRAW -->
<svg xmlns="http://www.w3.org/2000/svg" xml:space="preserve" width="3.434mm" height="3.7462mm" version="1.1" style="shape-rendering:geometricPrecision; text-rendering:geometricPrecision; image-rendering:optimizeQuality; fill-rule:evenodd; clip-rule:evenodd"
viewBox="0 0 7.34 8"
 xmlns:xlink="http://www.w3.org/1999/xlink"
 xmlns:xodm="http://www.corel.com/coreldraw/odm/2003">
 <defs>
  <style type="text/css">
   <![CDATA[
    .fil0 {fill:black;fill-rule:nonzero}
   ]]>
  </style>
 </defs>
 <g id="Capa_x0020_1">
  <metadata id="CorelCorpID_0Corel-Layer"/>
  <path class="fil0" d="M3.67 0c-0.11,0 -0.21,0.03 -0.3,0.07l-0.01 0 -3.15 1.62c-0.12,0.05 -0.21,0.17 -0.21,0.31 0,0.14 0.09,0.26 0.21,0.31l0 0.01 3.16 1.61 0 -0c0.09,0.05 0.19,0.07 0.3,0.07 0.11,0 0.21,-0.03 0.3,-0.07l0 0 3.16 -1.61 0 -0.01c0.12,-0.05 0.21,-0.17 0.21,-0.31 0,-0.14 -0.09,-0.26 -0.21,-0.31l-3.15 -1.62 -0.01 0c-0.09,-0.05 -0.19,-0.07 -0.3,-0.07zm-2.84 3.38l-0.62 0.32c-0.12,0.05 -0.21,0.17 -0.21,0.31 0,0.14 0.09,0.26 0.21,0.31l0 0.01 3.16 1.61 0 -0c0.09,0.05 0.19,0.07 0.3,0.07 0.11,0 0.21,-0.03 0.3,-0.07l0 0 3.16 -1.61 0 -0.01c0.12,-0.05 0.21,-0.17 0.21,-0.31 0,-0.14 -0.09,-0.26 -0.21,-0.31l-0.62 -0.32c-0.97,0.5 -2.29,1.17 -2.31,1.18 -0.17,0.08 -0.35,0.12 -0.54,0.12 -0.19,0 -0.37,-0.04 -0.54,-0.12 -0.01,-0.01 -1.34,-0.68 -2.3,-1.18zm0 2l-0.62 0.32c-0.12,0.05 -0.21,0.17 -0.21,0.31 0,0.14 0.09,0.26 0.21,0.31l0 0.01 3.16 1.61 0 -0c0.09,0.05 0.19,0.07 0.3,0.07 0.11,0 0.21,-0.03 0.3,-0.07l0 0 3.16 -1.61 0 -0.01c0.12,-0.05 0.21,-0.17 0.21,-0.31 0,-0.14 -0.09,-0.26 -0.21,-0.31l-0.62 -0.32c-0.97,0.5 -2.29,1.17 -2.31,1.18 -0.17,0.08 -0.35,0.12 -0.54,0.12 -0.19,0 -0.37,-0.04 -0.54,-0.12 -0.01,-0.01 -1.34,-0.68 -2.3,-1.18z"/>
 </g>
</svg>
