<?xml version="1.0" encoding="UTF-8"?>
<!DOCTYPE svg PUBLIC "-//W3C//DTD SVG 1.1//EN" "http://www.w3.org/Graphics/SVG/1.1/DTD/svg11.dtd">
<!-- Creator: CorelDRAW -->
<svg xmlns="http://www.w3.org/2000/svg" xml:space="preserve" width="2.9762mm" height="2.9762mm" version="1.1" style="shape-rendering:geometricPrecision; text-rendering:geometricPrecision; image-rendering:optimizeQuality; fill-rule:evenodd; clip-rule:evenodd"
viewBox="0 0 7.54 7.54"
 xmlns:xlink="http://www.w3.org/1999/xlink"
 xmlns:xodm="http://www.corel.com/coreldraw/odm/2003">
 <defs>
  <style type="text/css">
   <![CDATA[
    .fil0 {fill:black;fill-rule:nonzero}
   ]]>
  </style>
 </defs>
 <g id="Capa_x0020_1">
  <metadata id="CorelCorpID_0Corel-Layer"/>
  <path class="fil0" d="M7.23 0c-0.03,0 -0.06,0 -0.09,0.01 -0.01,0 -0.02,0.01 -0.03,0.01l-6.91 2.2 0 0c-0.12,0.05 -0.2,0.16 -0.2,0.29 0,0.11 0.06,0.21 0.15,0.27l2.1 1.67 4.15 -3.31 -3.31 4.15 1.66 2.1c0.06,0.09 0.16,0.15 0.27,0.15 0.13,-0 0.25,-0.08 0.29,-0.2l0 0 2.2 -6.92c0,-0.01 0,-0.01 0.01,-0.02 0.01,-0.03 0.01,-0.06 0.01,-0.09 0,-0.17 -0.14,-0.31 -0.31,-0.31z"/>
 </g>
</svg>
