<?xml version="1.0" encoding="UTF-8"?>
<!DOCTYPE svg PUBLIC "-//W3C//DTD SVG 1.1//EN" "http://www.w3.org/Graphics/SVG/1.1/DTD/svg11.dtd">
<!-- Creator: CorelDRAW -->
<svg xmlns="http://www.w3.org/2000/svg" xml:space="preserve" width="5.08mm" height="2.7214mm" version="1.1" style="shape-rendering:geometricPrecision; text-rendering:geometricPrecision; image-rendering:optimizeQuality; fill-rule:evenodd; clip-rule:evenodd"
viewBox="0 0 7.71 4.13"
 xmlns:xlink="http://www.w3.org/1999/xlink"
 xmlns:xodm="http://www.corel.com/coreldraw/odm/2003">
 <defs>
  <style type="text/css">
   <![CDATA[
    .fil0 {fill:black;fill-rule:nonzero}
   ]]>
  </style>
 </defs>
 <g id="SECTIONCUTEDGES">
  <metadata id="CorelCorpID_0Corel-Layer"/>
  <path class="fil0" d="M3.86 0c-0.87,0 -1.65,0.04 -2.28,0.13 -0.63,0.1 -1.12,0.23 -1.43,0.54 -0.1,0.1 -0.16,0.23 -0.16,0.38l0 0.67c0,0.58 0.14,1.17 0.45,1.63 0.31,0.46 0.83,0.79 1.47,0.79l0.28 0c0.65,0 1.12,-0.39 1.34,-0.65 0.07,-0.09 0.12,-0.14 0.15,-0.16 0.03,-0.02 0.06,-0.03 0.16,-0.03 0.11,0 0.13,0.01 0.16,0.03 0.03,0.02 0.08,0.07 0.15,0.16 0.21,0.26 0.68,0.65 1.34,0.65l0.28 0c0.65,0 1.16,-0.33 1.47,-0.79 0.31,-0.46 0.45,-1.05 0.45,-1.63l0 -0.67c0,-0.14 -0.06,-0.28 -0.16,-0.38 -0.31,-0.31 -0.8,-0.44 -1.43,-0.54 -0.63,-0.1 -1.41,-0.13 -2.28,-0.13zm0 0.55c0.85,0 1.61,0.04 2.19,0.12 0.58,0.09 0.98,0.25 1.11,0.38l0 0.66c0,0.49 -0.13,0.98 -0.36,1.32 -0.23,0.34 -0.55,0.55 -1.02,0.55l-0.28 0c-0.41,0 -0.79,-0.31 -0.91,-0.45l-0 -0c-0.08,-0.09 -0.15,-0.19 -0.27,-0.27 -0.12,-0.08 -0.29,-0.12 -0.46,-0.12 -0.18,0 -0.34,0.04 -0.46,0.12 -0.12,0.08 -0.2,0.18 -0.27,0.27 -0.12,0.15 -0.5,0.45 -0.92,0.45l-0.28 0c-0.47,0 -0.78,-0.21 -1.02,-0.55 -0.23,-0.34 -0.36,-0.83 -0.36,-1.32l0 -0.66c0.14,-0.13 0.53,-0.29 1.11,-0.38 0.58,-0.09 1.34,-0.12 2.19,-0.12zm-0.55 0.55c-0.15,0 -0.28,0.12 -0.28,0.28 0,0.15 0.12,0.28 0.28,0.28l1.1 0c0.15,0 0.28,-0.12 0.28,-0.28 0,-0.15 -0.12,-0.28 -0.28,-0.28l-1.1 0z"/>
 </g>
</svg>
