<?xml version="1.0" encoding="UTF-8"?>
<!DOCTYPE svg PUBLIC "-//W3C//DTD SVG 1.1//EN" "http://www.w3.org/Graphics/SVG/1.1/DTD/svg11.dtd">
<!-- Creator: CorelDRAW -->
<svg xmlns="http://www.w3.org/2000/svg" xml:space="preserve" width="4.0416mm" height="4.0416mm" version="1.1" style="shape-rendering:geometricPrecision; text-rendering:geometricPrecision; image-rendering:optimizeQuality; fill-rule:evenodd; clip-rule:evenodd"
viewBox="0 0 4.72 4.72"
 xmlns:xlink="http://www.w3.org/1999/xlink"
 xmlns:xodm="http://www.corel.com/coreldraw/odm/2003">
 <defs>
  <style type="text/css">
   <![CDATA[
    .fil0 {fill:black}
   ]]>
  </style>
 </defs>
 <g id="SECTIONCUTEDGES">
  <metadata id="CorelCorpID_0Corel-Layer"/>
  <path class="fil0" d="M0.79 0.66c1.81,0 3.28,1.47 3.28,3.28l0 0.13 -0.52 0 0 -0.13c0,-1.52 -1.23,-2.76 -2.76,-2.76l-0.13 0 0 -0.52 0.13 0zm-0.13 4.07l3.41 0c0.37,0 0.66,-0.29 0.66,-0.66l0 -3.41c0,-0.37 -0.29,-0.66 -0.66,-0.66l-3.41 0c-0.37,0 -0.66,0.29 -0.66,0.66l0 3.41c0,0.37 0.29,0.66 0.66,0.66zm0.13 -2.76c1.13,0 1.97,0.84 1.97,1.97l0 0.13 -0.53 0 0 -0.13c0,-0.83 -0.62,-1.44 -1.44,-1.44l-0.13 0 0 -0.53 0.13 0zm0.33 1.18c0.25,0 0.46,0.21 0.46,0.46 0,0.25 -0.21,0.46 -0.46,0.46 -0.25,0 -0.46,-0.21 -0.46,-0.46 0,-0.25 0.21,-0.46 0.46,-0.46z"/>
 </g>
</svg>
