<?xml version="1.0" encoding="UTF-8"?>
<!DOCTYPE svg PUBLIC "-//W3C//DTD SVG 1.1//EN" "http://www.w3.org/Graphics/SVG/1.1/DTD/svg11.dtd">
<!-- Creator: CorelDRAW -->
<svg xmlns="http://www.w3.org/2000/svg" xml:space="preserve" width="4.3531mm" height="4.3532mm" version="1.1" style="shape-rendering:geometricPrecision; text-rendering:geometricPrecision; image-rendering:optimizeQuality; fill-rule:evenodd; clip-rule:evenodd"
viewBox="0 0 10.17 10.17"
 xmlns:xlink="http://www.w3.org/1999/xlink"
 xmlns:xodm="http://www.corel.com/coreldraw/odm/2003">
 <defs>
  <style type="text/css">
   <![CDATA[
    .fil0 {fill:black;fill-rule:nonzero}
   ]]>
  </style>
 </defs>
 <g id="Capa_x0020_1">
  <metadata id="CorelCorpID_0Corel-Layer"/>
  <path class="fil0" d="M10 2c-0.11,-0.96 -0.87,-1.72 -1.83,-1.83 -0.77,-0.09 -1.81,-0.17 -3.08,-0.17 -1.27,0 -2.31,0.08 -3.08,0.17 -0.96,0.11 -1.72,0.87 -1.83,1.83 -0.09,0.77 -0.17,1.81 -0.17,3.08 0,1.27 0.08,2.31 0.17,3.08 0.11,0.96 0.87,1.72 1.83,1.83 0.77,0.09 1.81,0.17 3.08,0.17 1.27,0 2.31,-0.08 3.08,-0.17 0.96,-0.11 1.72,-0.87 1.83,-1.83 0.09,-0.77 0.17,-1.81 0.17,-3.08 0,-1.27 -0.08,-2.31 -0.17,-3.08zm-2.28 0.96l-5.28 0c-0.28,0 -0.5,-0.23 -0.5,-0.5l0 -0.04c0,-0.28 0.23,-0.5 0.5,-0.5l5.28 0c0.28,0 0.5,0.23 0.5,0.5l0 0.04c0,0.28 -0.23,0.5 -0.5,0.5zm0 2.64l-5.28 0c-0.28,0 -0.5,-0.23 -0.5,-0.5l0 -0.04c0,-0.28 0.23,-0.5 0.5,-0.5l5.28 0c0.28,0 0.5,0.23 0.5,0.5l0 0.04c0,0.28 -0.23,0.5 -0.5,0.5zm0 2.64l-5.28 0c-0.28,0 -0.5,-0.23 -0.5,-0.5l0 -0.04c0,-0.28 0.23,-0.5 0.5,-0.5l5.28 0c0.28,0 0.5,0.23 0.5,0.5l0 0.04c0,0.28 -0.23,0.5 -0.5,0.5z"/>
 </g>
</svg>
