<?xml version="1.0" encoding="UTF-8"?>
<!DOCTYPE svg PUBLIC "-//W3C//DTD SVG 1.1//EN" "http://www.w3.org/Graphics/SVG/1.1/DTD/svg11.dtd">
<!-- Creator: CorelDRAW -->
<svg xmlns="http://www.w3.org/2000/svg" xml:space="preserve" width="5.08mm" height="5.08mm" version="1.1" style="shape-rendering:geometricPrecision; text-rendering:geometricPrecision; image-rendering:optimizeQuality; fill-rule:evenodd; clip-rule:evenodd"
viewBox="0 0 7.07 7.07"
 xmlns:xlink="http://www.w3.org/1999/xlink"
 xmlns:xodm="http://www.corel.com/coreldraw/odm/2003">
 <defs>
  <style type="text/css">
   <![CDATA[
    .fil0 {fill:black;fill-rule:nonzero}
   ]]>
  </style>
 </defs>
 <g id="SECTIONCUTEDGES">
  <metadata id="CorelCorpID_0Corel-Layer"/>
  <path class="fil0" d="M5.89 0c-0.65,0 -1.18,0.53 -1.18,1.18 0,0.08 0.01,0.17 0.03,0.25l-2.68 1.34c-0.22,-0.26 -0.55,-0.41 -0.89,-0.41 -0.65,0 -1.18,0.53 -1.18,1.18 0,0.65 0.53,1.18 1.18,1.18 0.34,-0 0.66,-0.15 0.89,-0.41l2.67 1.34c-0.02,0.08 -0.03,0.16 -0.03,0.25 0,0.65 0.53,1.18 1.18,1.18 0.65,0 1.18,-0.53 1.18,-1.18 0,-0.65 -0.53,-1.18 -1.18,-1.18 -0.34,0 -0.66,0.15 -0.89,0.41l-2.67 -1.34c0.02,-0.08 0.03,-0.16 0.03,-0.25 -0,-0.08 -0.01,-0.17 -0.03,-0.25l2.68 -1.34c0.22,0.26 0.55,0.4 0.89,0.41 0.65,0 1.18,-0.53 1.18,-1.18 0,-0.65 -0.53,-1.18 -1.18,-1.18z"/>
 </g>
</svg>
