<?xml version="1.0" encoding="UTF-8"?>
<!DOCTYPE svg PUBLIC "-//W3C//DTD SVG 1.1//EN" "http://www.w3.org/Graphics/SVG/1.1/DTD/svg11.dtd">
<!-- Creator: CorelDRAW -->
<svg xmlns="http://www.w3.org/2000/svg" xml:space="preserve" width="5.0799mm" height="5.08mm" version="1.1" style="shape-rendering:geometricPrecision; text-rendering:geometricPrecision; image-rendering:optimizeQuality; fill-rule:evenodd; clip-rule:evenodd"
viewBox="0 0 10.05 10.05"
 xmlns:xlink="http://www.w3.org/1999/xlink"
 xmlns:xodm="http://www.corel.com/coreldraw/odm/2003">
 <defs>
  <style type="text/css">
   <![CDATA[
    .fil0 {fill:black;fill-rule:nonzero}
   ]]>
  </style>
 </defs>
 <g id="SECTIONCUTEDGES">
  <metadata id="CorelCorpID_0Corel-Layer"/>
  <path class="fil0" d="M9.88 1.98c-0.11,-0.95 -0.86,-1.7 -1.81,-1.81 -0.76,-0.09 -1.79,-0.17 -3.05,-0.17 -1.26,0 -2.29,0.08 -3.05,0.17 -0.95,0.11 -1.7,0.86 -1.81,1.81 -0.09,0.76 -0.17,1.79 -0.17,3.05 0,1.26 0.08,2.29 0.17,3.05 0.11,0.95 0.86,1.7 1.81,1.81 0.76,0.09 1.79,0.17 3.05,0.17 1.26,0 2.29,-0.08 3.05,-0.17 0.95,-0.11 1.7,-0.86 1.81,-1.81 0.09,-0.76 0.17,-1.79 0.17,-3.05 0,-1.26 -0.08,-2.29 -0.17,-3.05zm-2.25 0.95l-5.22 0c-0.27,0 -0.5,-0.22 -0.5,-0.5l0 -0.04c0,-0.27 0.22,-0.5 0.5,-0.5l5.22 0c0.27,0 0.5,0.22 0.5,0.5l0 0.04c0,0.27 -0.22,0.5 -0.5,0.5zm0 2.61l-5.22 0c-0.27,0 -0.5,-0.22 -0.5,-0.5l0 -0.04c0,-0.27 0.22,-0.5 0.5,-0.5l5.22 0c0.27,0 0.5,0.22 0.5,0.5l0 0.04c0,0.27 -0.22,0.5 -0.5,0.5zm0 2.61l-5.22 0c-0.27,0 -0.5,-0.22 -0.5,-0.5l0 -0.04c0,-0.27 0.22,-0.5 0.5,-0.5l5.22 0c0.27,0 0.5,0.22 0.5,0.5l0 0.04c0,0.27 -0.22,0.5 -0.5,0.5z"/>
 </g>
</svg>
