<?xml version="1.0" encoding="UTF-8"?>
<!DOCTYPE svg PUBLIC "-//W3C//DTD SVG 1.1//EN" "http://www.w3.org/Graphics/SVG/1.1/DTD/svg11.dtd">
<!-- Creator: CorelDRAW -->
<svg xmlns="http://www.w3.org/2000/svg" xml:space="preserve" width="3.7464mm" height="3.7464mm" version="1.1" style="shape-rendering:geometricPrecision; text-rendering:geometricPrecision; image-rendering:optimizeQuality; fill-rule:evenodd; clip-rule:evenodd"
viewBox="0 0 9.97 9.97"
 xmlns:xlink="http://www.w3.org/1999/xlink"
 xmlns:xodm="http://www.corel.com/coreldraw/odm/2003">
 <defs>
  <style type="text/css">
   <![CDATA[
    .fil0 {fill:black;fill-rule:nonzero}
   ]]>
  </style>
 </defs>
 <g id="Capa_x0020_1">
  <metadata id="CorelCorpID_0Corel-Layer"/>
  <path class="fil0" d="M0 2c-0,0.13 0.07,0.25 0.18,0.32 0.11,0.07 0.25,0.07 0.37,0 0.11,-0.07 0.18,-0.19 0.18,-0.32l0 -0.76 1.43 1.43c0.09,0.1 0.23,0.13 0.35,0.1 0.13,-0.03 0.23,-0.13 0.26,-0.26 0.03,-0.13 -0.01,-0.26 -0.1,-0.35l-1.43 -1.43 0.76 0c0.13,0 0.25,-0.07 0.32,-0.18 0.07,-0.11 0.07,-0.25 0,-0.37 -0.07,-0.11 -0.19,-0.18 -0.32,-0.18l-2 0 -0 2zm7.97 7.97c-0.13,0 -0.25,-0.07 -0.32,-0.18 -0.07,-0.11 -0.07,-0.25 0,-0.37 0.07,-0.11 0.19,-0.18 0.32,-0.18l0.76 0 -1.43 -1.43c-0.1,-0.09 -0.13,-0.23 -0.1,-0.35 0.03,-0.13 0.13,-0.23 0.26,-0.26 0.13,-0.03 0.26,0.01 0.35,0.1l1.43 1.43 0 -0.76c-0,-0.13 0.07,-0.25 0.18,-0.32 0.11,-0.07 0.25,-0.07 0.37,0 0.11,0.07 0.18,0.19 0.18,0.32l0 2 -2 0zm-5.97 0c0.13,0 0.25,-0.07 0.32,-0.18 0.07,-0.11 0.07,-0.25 0,-0.37 -0.07,-0.11 -0.19,-0.18 -0.32,-0.18l-0.76 0 1.43 -1.43c0.1,-0.09 0.13,-0.23 0.1,-0.35 -0.03,-0.13 -0.13,-0.23 -0.26,-0.26 -0.13,-0.03 -0.26,0.01 -0.35,0.1l-1.43 1.43 0 -0.76c0,-0.13 -0.07,-0.25 -0.18,-0.32 -0.11,-0.07 -0.25,-0.07 -0.37,0 -0.11,0.07 -0.18,0.19 -0.18,0.32l0 2 2 0zm7.97 -7.97c0,0.13 -0.07,0.25 -0.18,0.32 -0.11,0.07 -0.25,0.07 -0.37,0 -0.11,-0.07 -0.18,-0.19 -0.18,-0.32l0 -0.76 -1.43 1.43c-0.09,0.1 -0.23,0.13 -0.35,0.1 -0.13,-0.03 -0.23,-0.13 -0.26,-0.26 -0.03,-0.13 0.01,-0.26 0.1,-0.35l1.43 -1.43 -0.76 0c-0.13,0 -0.25,-0.07 -0.32,-0.18 -0.07,-0.11 -0.07,-0.25 0,-0.37 0.07,-0.11 0.19,-0.18 0.32,-0.18l2 0 0 2z"/>
 </g>
</svg>
