<?xml version="1.0" encoding="UTF-8"?>
<!DOCTYPE svg PUBLIC "-//W3C//DTD SVG 1.1//EN" "http://www.w3.org/Graphics/SVG/1.1/DTD/svg11.dtd">
<!-- Creator: CorelDRAW -->
<svg xmlns="http://www.w3.org/2000/svg" xml:space="preserve" width="3.1904mm" height="3.2636mm" version="1.1" style="shape-rendering:geometricPrecision; text-rendering:geometricPrecision; image-rendering:optimizeQuality; fill-rule:evenodd; clip-rule:evenodd"
viewBox="0 0 5.89 6.02"
 xmlns:xlink="http://www.w3.org/1999/xlink"
 xmlns:xodm="http://www.corel.com/coreldraw/odm/2003">
 <defs>
  <style type="text/css">
   <![CDATA[
    .fil0 {fill:black;fill-rule:nonzero}
   ]]>
  </style>
 </defs>
 <g id="Capa_x0020_1">
  <metadata id="CorelCorpID_0Corel-Layer"/>
  <path class="fil0" d="M2.66 0.96c0.66,0 1.19,0.53 1.19,1.19 0,0.66 -0.53,1.19 -1.19,1.19 -0.66,0 -1.19,-0.53 -1.19,-1.19 0,-0.66 0.53,-1.19 1.19,-1.19zm0 -0.6c-0.98,0 -1.79,0.8 -1.79,1.79 0,0.58 0.28,1.1 0.71,1.42 -0.85,0.38 -1.48,1.19 -1.58,2.15 -0.02,0.16 0.11,0.3 0.27,0.3 0.16,0 0.3,-0.05 0.32,-0.24 0.12,-1.04 1,-1.84 2.07,-1.84 1.07,0 1.95,0.8 2.07,1.84 0.02,0.18 0.16,0.24 0.32,0.24 0.16,0 0.29,-0.14 0.27,-0.3 -0.11,-0.96 -0.73,-1.77 -1.58,-2.15 0.43,-0.33 0.71,-0.84 0.71,-1.42 0,-0.98 -0.8,-1.79 -1.79,-1.79zm2.24 0.96l0 0.05c0,0.12 0.1,0.22 0.22,0.22l0.02 0 0 1.23 -0.02 0c-0.12,0 -0.22,0.1 -0.22,0.22l0 0.05c0,0.12 0.1,0.22 0.22,0.22l0.54 0c0.12,0 0.22,-0.1 0.22,-0.22l0 -0.05c0,-0.12 -0.1,-0.22 -0.22,-0.22l-0.02 0 0 -1.72 -0.52 0c-0.12,0 -0.22,0.1 -0.22,0.22zm0.49 -1.33c-0.2,0 -0.37,0.17 -0.37,0.37 0,0.2 0.17,0.37 0.37,0.37 0.2,0 0.37,-0.17 0.37,-0.37 0,-0.2 -0.17,-0.37 -0.37,-0.37z"/>
 </g>
</svg>
