<?xml version="1.0" encoding="UTF-8"?>
<!DOCTYPE svg PUBLIC "-//W3C//DTD SVG 1.1//EN" "http://www.w3.org/Graphics/SVG/1.1/DTD/svg11.dtd">
<!-- Creator: CorelDRAW -->
<svg xmlns="http://www.w3.org/2000/svg" xml:space="preserve" width="4.6566mm" height="5.08mm" version="1.1" style="shape-rendering:geometricPrecision; text-rendering:geometricPrecision; image-rendering:optimizeQuality; fill-rule:evenodd; clip-rule:evenodd"
viewBox="0 0 7.69 8.39"
 xmlns:xlink="http://www.w3.org/1999/xlink"
 xmlns:xodm="http://www.corel.com/coreldraw/odm/2003">
 <defs>
  <style type="text/css">
   <![CDATA[
    .fil0 {fill:black;fill-rule:nonzero}
   ]]>
  </style>
 </defs>
 <g id="SECTIONCUTEDGES">
  <metadata id="CorelCorpID_0Corel-Layer"/>
  <path class="fil0" d="M3.85 0c-0.11,0 -0.22,0.03 -0.31,0.08l-0.01 0 -3.31 1.7c-0.13,0.05 -0.22,0.18 -0.22,0.32 0,0.15 0.09,0.27 0.22,0.32l0 0.01 3.31 1.69 0 -0c0.1,0.05 0.2,0.08 0.31,0.08 0.11,0 0.22,-0.03 0.31,-0.08l0 0 3.31 -1.69 0 -0.01c0.13,-0.05 0.22,-0.18 0.22,-0.32 0,-0.15 -0.09,-0.27 -0.22,-0.32l-3.31 -1.7 -0.01 0c-0.09,-0.05 -0.2,-0.08 -0.31,-0.08zm-2.98 3.54l-0.65 0.33c-0.13,0.05 -0.22,0.18 -0.22,0.32 0,0.15 0.09,0.27 0.22,0.32l0 0.01 3.31 1.69 0 -0c0.1,0.05 0.2,0.08 0.31,0.08 0.11,0 0.22,-0.03 0.31,-0.08l0 0 3.31 -1.69 0 -0.01c0.13,-0.05 0.22,-0.18 0.22,-0.32 0,-0.15 -0.09,-0.27 -0.22,-0.32l-0.65 -0.33c-1.02,0.52 -2.4,1.23 -2.42,1.23 -0.18,0.08 -0.37,0.12 -0.56,0.12 -0.19,0 -0.38,-0.04 -0.56,-0.12 -0.02,-0.01 -1.4,-0.71 -2.42,-1.23zm0 2.1l-0.65 0.33c-0.13,0.05 -0.22,0.18 -0.22,0.32 0,0.15 0.09,0.27 0.22,0.32l0 0.01 3.31 1.69 0 -0c0.1,0.05 0.2,0.08 0.31,0.08 0.11,0 0.22,-0.03 0.31,-0.08l0 0 3.31 -1.69 0 -0.01c0.13,-0.05 0.22,-0.18 0.22,-0.32 0,-0.15 -0.09,-0.27 -0.22,-0.32l-0.65 -0.33c-1.02,0.52 -2.4,1.23 -2.42,1.23 -0.18,0.08 -0.37,0.12 -0.56,0.12 -0.19,0 -0.38,-0.04 -0.56,-0.12 -0.02,-0.01 -1.4,-0.71 -2.42,-1.23z"/>
 </g>
</svg>
