<?xml version="1.0" encoding="UTF-8"?>
<!DOCTYPE svg PUBLIC "-//W3C//DTD SVG 1.1//EN" "http://www.w3.org/Graphics/SVG/1.1/DTD/svg11.dtd">
<!-- Creator: CorelDRAW -->
<svg xmlns="http://www.w3.org/2000/svg" xml:space="preserve" width="3.7476mm" height="3.7475mm" version="1.1" style="shape-rendering:geometricPrecision; text-rendering:geometricPrecision; image-rendering:optimizeQuality; fill-rule:evenodd; clip-rule:evenodd"
viewBox="0 0 10.94 10.94"
 xmlns:xlink="http://www.w3.org/1999/xlink"
 xmlns:xodm="http://www.corel.com/coreldraw/odm/2003">
 <defs>
  <style type="text/css">
   <![CDATA[
    .fil0 {fill:black;fill-rule:nonzero}
   ]]>
  </style>
 </defs>
 <g id="Capa_x0020_1">
  <metadata id="CorelCorpID_0Corel-Layer"/>
  <path class="fil0" d="M0.48 8.56c-0.26,0 -0.48,0.21 -0.48,0.48l0 0.48c0,0.53 0.43,0.95 0.95,0.95l0.48 0c0.26,0 0.48,-0.21 0.48,-0.48 0,-0.26 -0.21,-0.48 -0.48,-0.48l-0.48 0 0 -0.48c0,-0.26 -0.21,-0.48 -0.48,-0.48zm6.66 -0.95c-0.53,0 -0.95,0.43 -0.95,0.95 0,0.53 0.43,0.95 0.95,0.95 0.53,0 0.95,-0.43 0.95,-0.95 0,-0.53 -0.43,-0.95 -0.95,-0.95l0 0zm0 -0.95c1.05,0 1.9,0.85 1.9,1.9 0,1.05 -0.85,1.9 -1.9,1.9 -1.05,0 -1.9,-0.85 -1.9,-1.9 0,-1.05 0.85,-1.9 1.9,-1.9zm-6.66 -0.95c-0.26,0 -0.48,0.21 -0.48,0.48l0 0.95c0,0.26 0.21,0.48 0.48,0.48 0.26,0 0.48,-0.21 0.48,-0.48l0 -0.95c0,-0.26 -0.21,-0.48 -0.48,-0.48zm5.53 -0.48c-0.18,0 -0.34,0.1 -0.42,0.26l-0.08 0.16c-0.16,0.32 -0.49,0.53 -0.85,0.53l-0.84 0c-0.26,0 -0.48,0.21 -0.48,0.48l0 3.81c0,0.26 0.21,0.48 0.48,0.48l6.66 0c0.26,0 0.48,-0.21 0.48,-0.48l0 -3.81c0,-0.26 -0.21,-0.48 -0.48,-0.48l-0.84 0c-0.36,0 -0.69,-0.2 -0.85,-0.53l-0.08 -0.16c-0.08,-0.16 -0.24,-0.26 -0.42,-0.26l-2.27 0zm3.99 -2.38c-0.26,0 -0.48,0.21 -0.48,0.48l0 0.95c0,0.26 0.21,0.48 0.48,0.48 0.26,0 0.48,-0.21 0.48,-0.48l0 -0.95c0,-0.26 -0.21,-0.48 -0.48,-0.48zm-9.51 0c-0.26,0 -0.48,0.21 -0.48,0.48l0 0.95c0,0.26 0.21,0.48 0.48,0.48 0.26,0 0.48,-0.21 0.48,-0.48l0 -0.95c0,-0.26 -0.21,-0.48 -0.48,-0.48zm8.56 -2.85c-0.26,0 -0.48,0.21 -0.48,0.48 0,0.26 0.21,0.48 0.48,0.48l0.48 0 0 0.48c0,0.26 0.21,0.48 0.48,0.48 0.26,0 0.48,-0.21 0.48,-0.48l0 -0.48c0,-0.53 -0.43,-0.95 -0.95,-0.95l-0.48 0zm-2.85 0c-0.26,0 -0.48,0.21 -0.48,0.48 0,0.26 0.21,0.48 0.48,0.48l0.95 0c0.26,0 0.48,-0.21 0.48,-0.48 0,-0.26 -0.21,-0.48 -0.48,-0.48l-0.95 0zm-2.85 0c-0.26,0 -0.48,0.21 -0.48,0.48 0,0.26 0.21,0.48 0.48,0.48l0.95 0c0.26,0 0.48,-0.21 0.48,-0.48 0,-0.26 -0.21,-0.48 -0.48,-0.48l-0.95 0zm-2.38 0c-0.53,0 -0.95,0.43 -0.95,0.95l0 0.48c0,0.26 0.21,0.48 0.48,0.48 0.26,0 0.48,-0.21 0.48,-0.48l0 -0.48 0.48 0c0.26,0 0.48,-0.21 0.48,-0.48 0,-0.26 -0.21,-0.48 -0.48,-0.48l-0.48 0z"/>
 </g>
</svg>
