<?xml version="1.0" encoding="UTF-8"?>
<!DOCTYPE svg PUBLIC "-//W3C//DTD SVG 1.1//EN" "http://www.w3.org/Graphics/SVG/1.1/DTD/svg11.dtd">
<!-- Creator: CorelDRAW -->
<svg xmlns="http://www.w3.org/2000/svg" xml:space="preserve" width="3.4628mm" height="3.4628mm" version="1.1" style="shape-rendering:geometricPrecision; text-rendering:geometricPrecision; image-rendering:optimizeQuality; fill-rule:evenodd; clip-rule:evenodd"
viewBox="0 0 3.46 3.46"
 xmlns:xlink="http://www.w3.org/1999/xlink"
 xmlns:xodm="http://www.corel.com/coreldraw/odm/2003">
 <defs>
  <style type="text/css">
   <![CDATA[
    .fil0 {fill:black;fill-rule:nonzero}
   ]]>
  </style>
 </defs>
 <g id="SECTIONCUTEDGES">
  <metadata id="CorelCorpID_0Corel-Layer"/>
  <path class="fil0" d="M3.38 1.34c0.04,0 0.08,-0.04 0.08,-0.08l0 -0.31c0,-0.04 -0.03,-0.08 -0.08,-0.08l-0.79 0 0 -0.79c0,-0.04 -0.03,-0.08 -0.08,-0.08l-0.31 0c-0.04,0 -0.08,0.04 -0.08,0.08l0 0.79 -0.79 0 0 -0.79c0,-0.04 -0.04,-0.08 -0.08,-0.08l-0.31 0c-0.04,0 -0.08,0.04 -0.08,0.08l0 0.79 -0.79 0c-0.04,0 -0.08,0.04 -0.08,0.08l0 0.31c0,0.04 0.04,0.08 0.08,0.08l0.79 0 0 0.79 -0.79 0c-0.04,0 -0.08,0.03 -0.08,0.08l0 0.31c0,0.04 0.04,0.08 0.08,0.08l0.79 0 0 0.79c0,0.04 0.04,0.08 0.08,0.08l0.31 0c0.04,0 0.08,-0.03 0.08,-0.08l0 -0.79 0.79 0 0 0.79c0,0.04 0.03,0.08 0.08,0.08l0.31 0c0.04,0 0.08,-0.03 0.08,-0.08l0 -0.79 0.79 0c0.04,0 0.08,-0.03 0.08,-0.08l0 -0.31c0,-0.04 -0.03,-0.08 -0.08,-0.08l-0.79 0 0 -0.79 0.79 0zm-1.26 0.79l-0.79 0 0 -0.79 0.79 0 0 0.79z"/>
 </g>
</svg>
