<?xml version="1.0" encoding="UTF-8"?>
<!DOCTYPE svg PUBLIC "-//W3C//DTD SVG 1.1//EN" "http://www.w3.org/Graphics/SVG/1.1/DTD/svg11.dtd">
<!-- Creator: CorelDRAW -->
<svg xmlns="http://www.w3.org/2000/svg" xml:space="preserve" width="5.08mm" height="4.342mm" version="1.1" style="shape-rendering:geometricPrecision; text-rendering:geometricPrecision; image-rendering:optimizeQuality; fill-rule:evenodd; clip-rule:evenodd"
viewBox="0 0 6.83 5.84"
 xmlns:xlink="http://www.w3.org/1999/xlink"
 xmlns:xodm="http://www.corel.com/coreldraw/odm/2003">
 <defs>
  <style type="text/css">
   <![CDATA[
    .fil0 {fill:black;fill-rule:nonzero}
   ]]>
  </style>
 </defs>
 <g id="SECTIONCUTEDGES">
  <metadata id="CorelCorpID_0Corel-Layer"/>
  <path class="fil0" d="M-0 0l0 4.71 5.65 0 0 -4.71 -5.65 0zm1.3 0.82c0.19,0 0.35,0.16 0.35,0.35 0,0.19 -0.16,0.35 -0.35,0.35 -0.2,0 -0.35,-0.16 -0.35,-0.35 0,-0.2 0.16,-0.35 0.35,-0.35zm4.71 0.27l0 3.97 -5.02 0.19 5.34 0.58 0.51 -4.68 -0.83 -0.06zm-2.24 0.2l0.82 1.18 0.35 1.41 -4.24 0 0.24 -0.71 0.82 -0.71 0.35 0.24 -0.24 0.47 0.24 0.24 0.59 -1.18 0.47 -0.12 0.59 -0.82z"/>
 </g>
</svg>
