<?xml version="1.0" encoding="UTF-8"?>
<!DOCTYPE svg PUBLIC "-//W3C//DTD SVG 1.1//EN" "http://www.w3.org/Graphics/SVG/1.1/DTD/svg11.dtd">
<!-- Creator: CorelDRAW -->
<svg xmlns="http://www.w3.org/2000/svg" xml:space="preserve" width="4.966mm" height="5.08mm" version="1.1" style="shape-rendering:geometricPrecision; text-rendering:geometricPrecision; image-rendering:optimizeQuality; fill-rule:evenodd; clip-rule:evenodd"
viewBox="0 0 9.16 9.37"
 xmlns:xlink="http://www.w3.org/1999/xlink"
 xmlns:xodm="http://www.corel.com/coreldraw/odm/2003">
 <defs>
  <style type="text/css">
   <![CDATA[
    .fil0 {fill:black;fill-rule:nonzero}
   ]]>
  </style>
 </defs>
 <g id="SECTIONCUTEDGES">
  <metadata id="CorelCorpID_0Corel-Layer"/>
  <path class="fil0" d="M4.14 1.5c1.03,0 1.85,0.82 1.85,1.85 0,1.03 -0.82,1.85 -1.85,1.85 -1.03,0 -1.85,-0.82 -1.85,-1.85 0,-1.03 0.82,-1.85 1.85,-1.85zm0 -0.93c-1.53,0 -2.78,1.25 -2.78,2.78 0,0.9 0.43,1.7 1.1,2.21 -1.33,0.59 -2.29,1.84 -2.46,3.34 -0.03,0.25 0.16,0.46 0.42,0.46 0.25,0 0.47,-0.08 0.51,-0.37 0.18,-1.62 1.55,-2.87 3.22,-2.87 1.67,0 3.04,1.25 3.22,2.87 0.03,0.29 0.25,0.37 0.5,0.37 0.25,0 0.44,-0.22 0.42,-0.46 -0.17,-1.5 -1.13,-2.75 -2.46,-3.34 0.67,-0.51 1.1,-1.31 1.1,-2.21 0,-1.53 -1.25,-2.78 -2.78,-2.78zm3.49 1.49l0 0.07c0,0.19 0.16,0.35 0.35,0.35l0.04 0 0 1.91 -0.04 0c-0.19,0 -0.35,0.16 -0.35,0.35l0 0.07c0,0.19 0.16,0.35 0.35,0.35l0.84 0c0.19,0 0.35,-0.16 0.35,-0.35l0 -0.07c0,-0.19 -0.16,-0.35 -0.35,-0.35l-0.04 0 0 -2.68 -0.8 0c-0.19,0 -0.35,0.16 -0.35,0.35zm0.76 -2.07c-0.32,0 -0.57,0.26 -0.57,0.57 0,0.32 0.26,0.57 0.57,0.57 0.32,0 0.57,-0.26 0.57,-0.57 0,-0.32 -0.26,-0.57 -0.57,-0.57z"/>
 </g>
</svg>
