<?xml version="1.0" encoding="UTF-8"?>
<!DOCTYPE svg PUBLIC "-//W3C//DTD SVG 1.1//EN" "http://www.w3.org/Graphics/SVG/1.1/DTD/svg11.dtd">
<!-- Creator: CorelDRAW -->
<svg xmlns="http://www.w3.org/2000/svg" xml:space="preserve" width="3.7462mm" height="3.7124mm" version="1.1" style="shape-rendering:geometricPrecision; text-rendering:geometricPrecision; image-rendering:optimizeQuality; fill-rule:evenodd; clip-rule:evenodd"
viewBox="0 0 9.3 9.22"
 xmlns:xlink="http://www.w3.org/1999/xlink"
 xmlns:xodm="http://www.corel.com/coreldraw/odm/2003">
 <defs>
  <style type="text/css">
   <![CDATA[
    .fil0 {fill:black;fill-rule:nonzero}
   ]]>
  </style>
 </defs>
 <g id="Capa_x0020_1">
  <metadata id="CorelCorpID_0Corel-Layer"/>
  <path class="fil0" d="M8.53 6.04c-0.19,0 -0.35,0.16 -0.35,0.35 0,0.02 0,0.05 0.01,0.07l0.23 1.15 -1.79 -1.24c-0.06,-0.04 -0.13,-0.07 -0.21,-0.07 -0.2,0 -0.35,0.16 -0.35,0.35 0,0.12 0.06,0.23 0.16,0.29l1.88 1.3 -1.28 0.26c-0.17,0.03 -0.29,0.18 -0.29,0.35 0,0.2 0.16,0.35 0.35,0.35 0.03,0 0.05,-0 0.07,-0.01l2.05 -0.41c0.17,-0.03 0.29,-0.18 0.29,-0.35 0,-0.02 -0,-0.05 -0.01,-0.07l-0.41 -2.05c-0.03,-0.17 -0.18,-0.29 -0.35,-0.29 -0,0 -0,0 -0,0l0 0zm-7.77 -0.01c-0.17,0 -0.31,0.12 -0.34,0.29l-0.41 2.05c-0,0.02 -0.01,0.05 -0.01,0.07 0,0.17 0.12,0.31 0.28,0.35l2.05 0.41c0.02,0 0.05,0.01 0.07,0.01 0.2,0 0.35,-0.16 0.35,-0.35 0,-0.17 -0.12,-0.31 -0.28,-0.35l-1.27 -0.25 1.87 -1.3c0.1,-0.07 0.16,-0.18 0.16,-0.29 0,-0.2 -0.16,-0.35 -0.35,-0.35 -0.07,0 -0.15,0.02 -0.21,0.07l-1.8 1.24 0.23 -1.16c0.01,-0.02 0.01,-0.05 0.01,-0.07 0,-0.2 -0.16,-0.35 -0.35,-0.35 -0,0 -0,0 -0.01,0l0 0zm3.89 -1.36c-0.43,0 -0.77,0.35 -0.77,0.77 0,0.43 0.35,0.77 0.77,0.77 0.43,0 0.77,-0.35 0.77,-0.77 0,-0.43 -0.35,-0.77 -0.77,-0.77zm-0.01 -4.67c-0.11,0 -0.21,0.05 -0.28,0.14l-1.5 1.5c-0.07,0.07 -0.11,0.16 -0.11,0.26 0,0.2 0.16,0.35 0.35,0.35 0.1,0 0.19,-0.04 0.26,-0.11l0.93 -0.93 0 2.22c0,0 0,0 0,0 0,0.2 0.16,0.35 0.35,0.35 0.2,0 0.35,-0.16 0.35,-0.35 0,-0 0,-0 0,-0l0 -2.22 0.93 0.93c0.07,0.07 0.16,0.11 0.26,0.11 0.2,0 0.35,-0.16 0.35,-0.35 0,-0.1 -0.04,-0.19 -0.11,-0.26l-1.5 -1.5c-0.07,-0.09 -0.17,-0.14 -0.28,-0.14 -0,0 -0,0 -0,0l-0 0z"/>
 </g>
</svg>
