<?xml version="1.0" encoding="UTF-8"?>
<!DOCTYPE svg PUBLIC "-//W3C//DTD SVG 1.1//EN" "http://www.w3.org/Graphics/SVG/1.1/DTD/svg11.dtd">
<!-- Creator: CorelDRAW -->
<svg xmlns="http://www.w3.org/2000/svg" xml:space="preserve" width="5.08mm" height="5.0799mm" version="1.1" style="shape-rendering:geometricPrecision; text-rendering:geometricPrecision; image-rendering:optimizeQuality; fill-rule:evenodd; clip-rule:evenodd"
viewBox="0 0 8.21 8.21"
 xmlns:xlink="http://www.w3.org/1999/xlink"
 xmlns:xodm="http://www.corel.com/coreldraw/odm/2003">
 <defs>
  <style type="text/css">
   <![CDATA[
    .fil0 {fill:black;fill-rule:nonzero}
   ]]>
  </style>
 </defs>
 <g id="SECTIONCUTEDGES">
  <metadata id="CorelCorpID_0Corel-Layer"/>
  <path class="fil0" d="M0.36 6.43c-0.2,0 -0.36,0.16 -0.36,0.36l0 0.36c0,0.39 0.32,0.71 0.71,0.71l0.36 0c0.2,0 0.36,-0.16 0.36,-0.36 0,-0.2 -0.16,-0.36 -0.36,-0.36l-0.36 0 0 -0.36c0,-0.2 -0.16,-0.36 -0.36,-0.36zm5 -0.71c-0.39,0 -0.71,0.32 -0.71,0.71 0,0.39 0.32,0.71 0.71,0.71 0.39,0 0.71,-0.32 0.71,-0.71 0,-0.39 -0.32,-0.71 -0.71,-0.71l0 0zm0 -0.71c0.79,0 1.43,0.64 1.43,1.43 0,0.79 -0.64,1.43 -1.43,1.43 -0.79,0 -1.43,-0.64 -1.43,-1.43 0,-0.79 0.64,-1.43 1.43,-1.43zm-5 -0.71c-0.2,0 -0.36,0.16 -0.36,0.36l0 0.71c0,0.2 0.16,0.36 0.36,0.36 0.2,0 0.36,-0.16 0.36,-0.36l0 -0.71c0,-0.2 -0.16,-0.36 -0.36,-0.36zm4.15 -0.36c-0.14,0 -0.26,0.08 -0.32,0.2l-0.06 0.12c-0.12,0.24 -0.37,0.39 -0.64,0.39l-0.63 0c-0.2,0 -0.36,0.16 -0.36,0.36l0 2.86c0,0.2 0.16,0.36 0.36,0.36l5 0c0.2,0 0.36,-0.16 0.36,-0.36l0 -2.86c0,-0.2 -0.16,-0.36 -0.36,-0.36l-0.63 0c-0.27,0 -0.52,-0.15 -0.64,-0.39l-0.06 -0.12c-0.06,-0.12 -0.18,-0.2 -0.32,-0.2l-1.7 0zm2.99 -1.79c-0.2,0 -0.36,0.16 -0.36,0.36l0 0.71c0,0.2 0.16,0.36 0.36,0.36 0.2,0 0.36,-0.16 0.36,-0.36l0 -0.71c0,-0.2 -0.16,-0.36 -0.36,-0.36zm-7.14 0c-0.2,0 -0.36,0.16 -0.36,0.36l0 0.71c0,0.2 0.16,0.36 0.36,0.36 0.2,0 0.36,-0.16 0.36,-0.36l0 -0.71c0,-0.2 -0.16,-0.36 -0.36,-0.36zm6.43 -2.14c-0.2,0 -0.36,0.16 -0.36,0.36 0,0.2 0.16,0.36 0.36,0.36l0.36 0 0 0.36c0,0.2 0.16,0.36 0.36,0.36 0.2,0 0.36,-0.16 0.36,-0.36l0 -0.36c0,-0.39 -0.32,-0.71 -0.71,-0.71l-0.36 0zm-2.14 0c-0.2,0 -0.36,0.16 -0.36,0.36 0,0.2 0.16,0.36 0.36,0.36l0.71 0c0.2,0 0.36,-0.16 0.36,-0.36 0,-0.2 -0.16,-0.36 -0.36,-0.36l-0.71 0zm-2.14 0c-0.2,0 -0.36,0.16 -0.36,0.36 0,0.2 0.16,0.36 0.36,0.36l0.71 0c0.2,0 0.36,-0.16 0.36,-0.36 0,-0.2 -0.16,-0.36 -0.36,-0.36l-0.71 0zm-1.79 0c-0.39,0 -0.71,0.32 -0.71,0.71l0 0.36c0,0.2 0.16,0.36 0.36,0.36 0.2,0 0.36,-0.16 0.36,-0.36l0 -0.36 0.36 0c0.2,0 0.36,-0.16 0.36,-0.36 0,-0.2 -0.16,-0.36 -0.36,-0.36l-0.36 0z"/>
 </g>
</svg>
