<?xml version="1.0" encoding="UTF-8"?>
<!DOCTYPE svg PUBLIC "-//W3C//DTD SVG 1.1//EN" "http://www.w3.org/Graphics/SVG/1.1/DTD/svg11.dtd">
<!-- Creator: CorelDRAW -->
<svg xmlns="http://www.w3.org/2000/svg" xml:space="preserve" width="4.1516mm" height="4.1516mm" version="1.1" style="shape-rendering:geometricPrecision; text-rendering:geometricPrecision; image-rendering:optimizeQuality; fill-rule:evenodd; clip-rule:evenodd"
viewBox="0 0 4.84 4.84"
 xmlns:xlink="http://www.w3.org/1999/xlink"
 xmlns:xodm="http://www.corel.com/coreldraw/odm/2003">
 <defs>
  <style type="text/css">
   <![CDATA[
    .fil0 {fill:black;fill-rule:nonzero}
   ]]>
  </style>
 </defs>
 <g id="SECTIONCUTEDGES">
  <metadata id="CorelCorpID_0Corel-Layer"/>
  <path class="fil0" d="M2.42 0c-1.34,0 -2.42,1.08 -2.42,2.42 0,1.34 1.08,2.42 2.42,2.42 1.34,0 2.42,-1.08 2.42,-2.42 0,-1.34 -1.08,-2.42 -2.42,-2.42zm0.39 2.42c0,0 0.87,0.87 0.91,0.91 0.11,0.11 0.11,0.28 0,0.39 -0.11,0.11 -0.28,0.11 -0.39,0 -0.04,-0.04 -0.91,-0.91 -0.91,-0.91 0,0 -0.87,0.87 -0.91,0.91 -0.11,0.11 -0.28,0.11 -0.39,0 -0.11,-0.11 -0.11,-0.28 0,-0.39 0.04,-0.04 0.91,-0.91 0.91,-0.91 0,0 -0.87,-0.87 -0.91,-0.91 -0.11,-0.11 -0.11,-0.28 0,-0.39 0.11,-0.11 0.28,-0.11 0.39,0 0.04,0.04 0.91,0.91 0.91,0.91 0,0 0.87,-0.87 0.91,-0.91 0.11,-0.11 0.28,-0.11 0.39,0 0.11,0.11 0.11,0.28 0,0.39 -0.04,0.04 -0.91,0.91 -0.91,0.91z"/>
 </g>
</svg>
